<svg width="36" height="56" viewBox="0 0 36 56" fill="none" xmlns="http://www.w3.org/2000/svg">
<path d="M19.7883 39.1185C19.9717 40.3668 16.4541 39.357 19.7883 39.1185ZM0.0340963 0.0504249C1.71696 0.705558 3.57871 1.22596 5.78716 1.64015C8.47772 3.49603 11.7994 6.37852 4.93886 9.8432C6.69441 9.65575 8.82511 9.08653 10.2293 9.24612C8.58646 10.6593 4.94095 12.3105 7.19998 13.1587C8.9053 14.0653 4.89039 15.5388 2.07086 16.2751C4.2389 15.9842 6.82351 15.3471 8.42255 15.6361C7.00721 17.5674 6.65888 19.4151 8.3805 20.6455C8.46404 21.8843 4.86472 23.2018 1.85066 24.0042C3.52813 24.4116 7.16345 24.4024 5.33697 25.925C3.84217 27.1515 8.76456 25.6055 8.71874 26.3936C8.95268 27.7788 13.0474 27.7234 13.0104 29.1938C12.9988 30.3126 15.997 30.1585 18.5143 29.9007C19.1241 30.7773 19.6914 31.8085 17.2392 33.1026C21.1367 33.6202 16.0412 36.6764 18.2755 37.7495C18.6544 38.7416 23.6549 37.8951 21.9306 39.5013C20.1 41.5254 18.8986 44.1797 25.4023 43.1113C22.3241 45.2758 24.5916 47.3874 26.5889 48.681C30.9108 48.6894 30.9176 50.7873 27.9362 52.755C32.2437 52.836 35.9049 55.2594 35.9049 55.2594C26.5889 55.2594 13.0104 55.2594 0.0340942 55.2594C0.0340939 29.1938 0.0340966 17.5504 0.0340963 0.0504249Z" fill="#333333"/>
</svg>
