<svg width="24" height="246" viewBox="0 0 24 246" fill="none" xmlns="http://www.w3.org/2000/svg">
<path d="M14.0994 57.5971C13.0894 61.0705 17.6294 57.5464 14.0994 57.5971ZM12.6994 47.1667C14.2094 49.4654 14.2494 44.7667 12.6994 47.1667ZM8.43939 28.8477C7.39939 30.9034 10.7694 28.8781 8.43939 28.8477ZM7.99938 201.425C8.07938 203.703 10.0894 200.372 7.99938 201.425ZM23.5294 3.17681C23.4094 3.30845 23.2794 3.42997 23.1394 3.54136C23.2494 4.09833 23.3794 4.65529 23.5294 5.20212L23.5294 3.17681ZM23.5394 245.799L23.5394 21.354C22.1194 23.0857 20.7894 24.8477 20.8294 27.2274C20.2294 29.192 21.4394 30.9236 21.9794 32.7363C22.2894 35.5819 18.3694 36.1287 18.0594 38.7717C17.6194 40.5439 16.7294 42.4274 14.7994 43.0249C13.3694 41.7186 14.5794 41.3135 16.0094 41.0604C16.1994 39.6021 14.8094 38.711 14.0894 37.6072C15.2194 36.6755 16.4494 35.8755 17.6094 34.9743C16.4494 34.8933 15.2894 34.8528 14.1394 34.7312C15.6094 29.9414 13.5494 24.9692 12.0994 20.3819C11.3794 20.9692 11.3694 21.992 10.9894 22.7616C9.69938 22.6907 7.60938 21.6173 6.95938 23.2173C6.90938 25.5768 6.95939 27.9363 6.80939 30.2958C8.26939 32.1692 10.8094 33.911 10.2594 36.5743C8.6594 38.3262 6.27938 42.8122 9.79938 43.5717C11.4194 44.0679 8.88939 44.2198 8.40939 44.554C8.71939 45.9616 10.7594 45.4755 11.8294 46.0528C11.9794 47.8654 10.6294 49.1616 9.68939 50.549C11.1194 50.7009 11.1694 48.7768 12.5894 48.8882C12.4794 50.6705 11.1994 51.4806 9.49939 51.6325C9.58939 55.6528 11.8494 59.3895 15.1894 61.668C15.7394 64.1388 16.1294 66.8933 15.0194 69.2933C12.2994 69.7692 9.5794 70.8123 8.4194 73.4553C9.3394 73.6072 10.2694 73.7591 11.1994 73.8907C8.2294 74.9135 10.9094 79.1869 7.49939 79.5414C5.90939 80.3717 6.34939 77.8907 5.84939 77.0604C5.06939 78.3059 4.27938 79.5515 3.36938 80.716C4.81938 81.354 6.3694 81.7591 7.8594 82.3161C8.5994 84.1692 7.65939 87.7135 10.5994 87.4705C12.5894 87.5312 10.1894 88.9287 9.4494 88.949C10.4794 90.8123 11.7594 93.03 10.9094 95.1667C10.0794 97.1211 12.8794 98.073 13.0494 99.8958C13.6894 101.779 11.4794 103.491 12.4594 105.253C13.2594 106.681 12.1994 108.24 12.1394 109.729C13.3194 110.549 14.6994 111.045 16.0294 111.602C11.4094 112.129 15.5394 115.541 18.1794 115.359C15.6094 119.957 14.0394 125.04 10.8294 129.263C9.45937 133.719 7.85938 140.26 12.6194 143.329C11.5094 143.774 10.1094 143.714 9.26937 144.615C10.4994 146.377 12.9994 147.673 11.7394 150.164C10.8294 152.514 13.5294 153.334 15.3794 153.384C13.9994 153.83 12.3094 153.85 11.3694 155.065C12.5394 157.84 13.0394 160.939 12.1694 163.865C12.3094 166.083 14.7294 166.812 16.7094 166.893C15.7394 168.351 13.4994 169.941 14.8594 171.815C15.9694 173.314 12.6994 172.767 12.8494 174.134C12.9194 176.676 10.3894 178.387 10.6394 180.959C10.8194 182.924 8.9494 183.977 7.3594 184.635C7.1194 186.448 6.9294 188.514 8.6394 189.708C6.3194 192.341 9.92938 195.47 8.71938 198.346C8.63938 200.26 5.42937 200.979 6.73937 203.045C8.17937 205.8 9.32938 209.941 5.15938 210.934C7.38938 213.384 6.31939 218.103 5.28939 221.263C2.62939 223.187 2.94938 226.883 5.08938 229.03C2.44938 231.076 3.07939 234.812 0.569387 236.959C1.82984 239.047 2.76644 242.151 3.47939 245.799C28.8474 245.799 13.5094 245.799 23.5394 245.799ZM6.01938 11.2173C5.43938 13.4148 6.33939 16.1793 9.02939 16.3009C10.7994 15.4806 13.2494 14.5085 13.0894 12.1996C12.9394 10.2452 15.4194 10.235 16.7694 9.59706C17.5994 10.5085 17.6294 12.7363 19.2794 12.2907C18.1194 9.32364 22.8494 8.29073 20.0494 5.57681C18.3694 8.44263 15.7894 8.51352 12.8094 9.07048C13.5194 6.95402 8.51938 3.57174 12.2094 3.81478C10.8194 2.96415 11.6794 1.31352 11.5894 0.0173131C10.1794 -0.0333199 8.74939 0.0173136 7.36939 0.300858C6.44939 3.95655 7.2394 7.592 6.0094 11.1971L6.01938 11.2173ZM8.84939 56.0173C8.36939 56.6958 8.92939 57.8097 9.74939 57.9717C10.9694 57.7085 9.91939 55.3591 8.84939 56.0173Z" fill="#333333"/>
</svg>
